<?xml version="1.0" encoding="UTF-8"?>
<svg id="_Шар_2" data-name="Шар 2" xmlns="http://www.w3.org/2000/svg" viewBox="0 0 40.44 42.2">
  <defs>
    <style>
      .cls-1 {
        stroke-width: 0px;
      }

      .cls-1, .cls-2 {
        fill: #000;
      }

      .cls-2, .cls-3, .cls-4 {
        stroke: #000;
        stroke-miterlimit: 10;
      }

      .cls-2, .cls-4 {
        stroke-width: .44px;
      }

      .cls-3 {
        stroke-width: .22px;
      }

      .cls-3, .cls-4 {
        fill: #b22222;
      }
    </style>
  </defs>
  <g id="_Шар_1-2" data-name="Шар 1">
    <g>
      <rect class="cls-3" x="5.71" y="3.08" width="28.79" height="38.24"/>
      <g>
        <ellipse class="cls-2" cx="2.09" cy="39.67" rx="1.87" ry=".99"/>
        <g>
          <ellipse class="cls-2" cx="38.35" cy="39.67" rx="1.87" ry=".99"/>
          <rect class="cls-4" x="1.98" y="37.8" width="36.47" height="4.18" rx="2.09" ry="2.09"/>
        </g>
      </g>
      <g>
        <ellipse class="cls-2" cx="2.09" cy="2.09" rx="1.87" ry=".99"/>
        <g>
          <ellipse class="cls-2" cx="38.35" cy="2.09" rx="1.87" ry=".99"/>
          <rect class="cls-4" x="1.98" y=".22" width="36.47" height="4.18" rx="2.09" ry="2.09"/>
        </g>
      </g>
      <g>
        <path class="cls-1" d="M8.13,8.23c7.97-.08,16.04-.22,23.96.02-7.97.15-16.04.15-23.96-.02h0Z"/>
        <path class="cls-1" d="M8.13,11.22c7.97-.08,16.04-.22,23.96.02-7.97.15-16.04.15-23.96-.02h0Z"/>
        <path class="cls-1" d="M8.13,14.21c7.97-.08,16.04-.22,23.96.02-7.97.15-16.04.15-23.96-.02h0Z"/>
        <path class="cls-1" d="M8.13,17.2c7.97-.08,16.04-.22,23.96.02-7.97.15-16.04.15-23.96-.02h0Z"/>
        <path class="cls-1" d="M8.13,20.2c7.97-.08,16.04-.22,23.96.02-7.97.15-16.04.15-23.96-.02h0Z"/>
        <path class="cls-1" d="M8.13,23.19c7.97-.08,16.04-.22,23.96.02-7.97.15-16.04.15-23.96-.02h0Z"/>
        <path class="cls-1" d="M8.13,26.18c7.97-.08,16.04-.22,23.96.02-7.97.15-16.04.15-23.96-.02h0Z"/>
        <path class="cls-1" d="M8.13,29.17c7.97-.08,16.04-.22,23.96.02-7.97.15-16.04.15-23.96-.02h0Z"/>
        <path class="cls-1" d="M8.13,32.16c7.97-.08,16.04-.22,23.96.02-7.97.15-16.04.15-23.96-.02h0Z"/>
        <path class="cls-1" d="M8.13,35.15c7.97-.08,16.04-.22,23.96.02-7.97.15-16.04.15-23.96-.02h0Z"/>
      </g>
    </g>
  </g>
</svg>