<?xml version="1.0" encoding="UTF-8"?>
<svg id="_Шар_2" data-name="Шар 2" xmlns="http://www.w3.org/2000/svg" viewBox="0 0 40.33 29.59">
  <defs>
    <style>
      .cls-1 {
        fill: #000;
        stroke-width: .34px;
      }

      .cls-1, .cls-2 {
        stroke: #b22222;
        stroke-miterlimit: 10;
      }

      .cls-3 {
        fill: #b22222;
        stroke-width: 0px;
      }

      .cls-2 {
        fill: none;
        stroke-width: .45px;
      }
    </style>
  </defs>
  <g id="_Шар_1-2" data-name="Шар 1">
    <g>
      <g>
        <g>
          <g>
            <path class="cls-2" d="M40.11,8.78c0-1.28-1.03-2.31-2.31-2.31h-1.85"/>
            <path class="cls-2" d="M40.23,8.55H2.54c-1.28,0-2.31-1.03-2.31-2.31v-3.7c0-1.28,1.03-2.31,2.31-2.31h37.69"/>
          </g>
          <path class="cls-2" d="M40.11,0c0,1.28-1.03,2.31-2.31,2.31h-1.85"/>
        </g>
        <rect class="cls-1" x="18.43" y="-13.82" width="5.55" height="36.41" transform="translate(16.82 25.6) rotate(-90)"/>
      </g>
      <g>
        <path class="cls-3" d="M3.35,2.64c11.58-.05,23.81-.12,35.37.02-11.6.08-23.82.09-35.37-.02h0Z"/>
        <path class="cls-3" d="M3.35,3.02c11.58-.05,23.81-.12,35.37.02-11.6.08-23.82.09-35.37-.02h0Z"/>
        <path class="cls-3" d="M3.35,3.41c11.58-.05,23.81-.12,35.37.02-11.6.08-23.82.09-35.37-.02h0Z"/>
        <path class="cls-3" d="M3.35,3.8c11.58-.05,23.81-.12,35.37.02-11.6.08-23.82.09-35.37-.02h0Z"/>
        <path class="cls-3" d="M3.35,4.18c11.58-.05,23.81-.12,35.37.02-11.6.08-23.82.09-35.37-.02h0Z"/>
        <path class="cls-3" d="M3.35,4.57c11.58-.05,23.81-.12,35.37.02-11.6.08-23.82.09-35.37-.02h0Z"/>
        <path class="cls-3" d="M3.35,4.96c11.58-.05,23.81-.12,35.37.02-11.6.08-23.82.09-35.37-.02h0Z"/>
        <path class="cls-3" d="M3.35,5.34c11.58-.05,23.81-.12,35.37.02-11.6.08-23.82.09-35.37-.02h0Z"/>
        <path class="cls-3" d="M3.35,5.73c11.58-.05,23.81-.12,35.37.02-11.6.08-23.82.09-35.37-.02h0Z"/>
        <path class="cls-3" d="M3.35,6.12c11.58-.05,23.81-.12,35.37.02-11.6.08-23.82.09-35.37-.02h0Z"/>
      </g>
      <g>
        <g>
          <g>
            <path class="cls-2" d="M40.11,19.19c0-1.28-1.03-2.31-2.31-2.31h-1.85"/>
            <path class="cls-2" d="M40.23,18.96H2.54c-1.28,0-2.31-1.03-2.31-2.31v-3.7c0-1.28,1.03-2.31,2.31-2.31h37.69"/>
          </g>
          <path class="cls-2" d="M40.11,10.4c0,1.28-1.03,2.31-2.31,2.31h-1.85"/>
        </g>
        <rect class="cls-1" x="18.43" y="-3.41" width="5.55" height="36.41" transform="translate(6.41 36) rotate(-90)"/>
      </g>
      <g>
        <path class="cls-3" d="M3.35,13.04c11.58-.05,23.81-.12,35.37.02-11.6.08-23.82.09-35.37-.02h0Z"/>
        <path class="cls-3" d="M3.35,13.43c11.58-.05,23.81-.12,35.37.02-11.6.08-23.82.09-35.37-.02h0Z"/>
        <path class="cls-3" d="M3.35,13.81c11.58-.05,23.81-.12,35.37.02-11.6.08-23.82.09-35.37-.02h0Z"/>
        <path class="cls-3" d="M3.35,14.2c11.58-.05,23.81-.12,35.37.02-11.6.08-23.82.09-35.37-.02h0Z"/>
        <path class="cls-3" d="M3.35,14.59c11.58-.05,23.81-.12,35.37.02-11.6.08-23.82.09-35.37-.02h0Z"/>
        <path class="cls-3" d="M3.35,14.97c11.58-.05,23.81-.12,35.37.02-11.6.08-23.82.09-35.37-.02h0Z"/>
        <path class="cls-3" d="M3.35,15.36c11.58-.05,23.81-.12,35.37.02-11.6.08-23.82.09-35.37-.02h0Z"/>
        <path class="cls-3" d="M3.35,15.75c11.58-.05,23.81-.12,35.37.02-11.6.08-23.82.09-35.37-.02h0Z"/>
        <path class="cls-3" d="M3.35,16.14c11.58-.05,23.81-.12,35.37.02-11.6.08-23.82.09-35.37-.02h0Z"/>
        <path class="cls-3" d="M3.35,16.52c11.58-.05,23.81-.12,35.37.02-11.6.08-23.82.09-35.37-.02h0Z"/>
      </g>
      <g>
        <g>
          <g>
            <path class="cls-2" d="M40.11,29.59c0-1.28-1.03-2.31-2.31-2.31h-1.85"/>
            <path class="cls-2" d="M40.23,29.36H2.54c-1.28,0-2.31-1.03-2.31-2.31v-3.7c0-1.28,1.03-2.31,2.31-2.31h37.69"/>
          </g>
          <path class="cls-2" d="M40.11,20.81c0,1.28-1.03,2.31-2.31,2.31h-1.85"/>
        </g>
        <rect class="cls-1" x="18.43" y="6.99" width="5.55" height="36.41" transform="translate(-3.99 46.41) rotate(-90)"/>
      </g>
      <g>
        <path class="cls-3" d="M3.35,23.44c11.58-.05,23.81-.12,35.37.02-11.6.08-23.82.09-35.37-.02h0Z"/>
        <path class="cls-3" d="M3.35,23.83c11.58-.05,23.81-.12,35.37.02-11.6.08-23.82.09-35.37-.02h0Z"/>
        <path class="cls-3" d="M3.35,24.22c11.58-.05,23.81-.12,35.37.02-11.6.08-23.82.09-35.37-.02h0Z"/>
        <path class="cls-3" d="M3.35,24.61c11.58-.05,23.81-.12,35.37.02-11.6.08-23.82.09-35.37-.02h0Z"/>
        <path class="cls-3" d="M3.35,24.99c11.58-.05,23.81-.12,35.37.02-11.6.08-23.82.09-35.37-.02h0Z"/>
        <path class="cls-3" d="M3.35,25.38c11.58-.05,23.81-.12,35.37.02-11.6.08-23.82.09-35.37-.02h0Z"/>
        <path class="cls-3" d="M3.35,25.77c11.58-.05,23.81-.12,35.37.02-11.6.08-23.82.09-35.37-.02h0Z"/>
        <path class="cls-3" d="M3.35,26.15c11.58-.05,23.81-.12,35.37.02-11.6.08-23.82.09-35.37-.02h0Z"/>
        <path class="cls-3" d="M3.35,26.54c11.58-.05,23.81-.12,35.37.02-11.6.08-23.82.09-35.37-.02h0Z"/>
        <path class="cls-3" d="M3.35,26.93c11.58-.05,23.81-.12,35.37.02-11.6.08-23.82.09-35.37-.02h0Z"/>
      </g>
    </g>
  </g>
</svg>