<?xml version="1.0" encoding="UTF-8"?>
<svg id="_Шар_2" data-name="Шар 2" xmlns="http://www.w3.org/2000/svg" viewBox="0 0 120.06 127.66">
  <defs>
    <style>
      .cls-1 {
        letter-spacing: -.05em;
      }

      .cls-2 {
        stroke-width: .13px;
      }

      .cls-2, .cls-3 {
        fill: #000;
        stroke: #000;
        stroke-miterlimit: 10;
      }

      .cls-4 {
        letter-spacing: -.06em;
      }

      .cls-3 {
        font-family: Amalfi-Regular, Amalfi;
        font-size: 31.11px;
        stroke-width: .13px;
      }
    </style>
  </defs>
  <g id="_Шар_1-2" data-name="Шар 1">
    <g>
      <g>
        <path class="cls-2" d="M9.88,47.41c-.32.07-.52.11-.52.11.16-.02.33-.06.52-.11Z"/>
        <path class="cls-2" d="M.1,74.41c-.03.07-.04.11-.04.11.01-.04.03-.07.04-.11Z"/>
        <path class="cls-2" d="M16.64,31.29c-.14.29-.17.47-.17.47.05-.16.11-.31.17-.47Z"/>
        <path class="cls-2" d="M67.89,90.93s-.39-5.43-2.84-7.49c0,0,5.17,7.11-2.71,14.47,0,0,3.36-5.3,3.36-5.94,0,0-3.75,7.36-11.5,9.3,0,0,2.45-1.03,3.23-1.81,0,0-5.94,3.23-13.57.78,0,0,9.17-2.58,11.24-4.13,0,0-5.04,3.46-15.5-.99,0,0,10.62,3.26,13.25-2.09-.54.89-11.49,2.56-10.43-5.65,0,0-2.05-.32.54-12.47.23-1.08.71-3.27,1.16-4.26.65-1.42,1.68-3.75,1.68-5.43l.78,1.94s.03-1.52-.52-6.59c-.16-1.51-.39-6.07-.39-6.07,0,0,2.45,9.3,2.45,10.59,0,0,.39-2.58.13-7.11,0,0,.78,2.45.78,2.97,0,0-.17-4.89-1.03-6.98,0,0,2.33,1.94,3.88,2.58,0,0-1.99-1.35-2.58-3.23-.35-1.11-.39-2.2-1.81-4.39,0,0,2.9,2.11,3.84,5.06,0,0-.74-4.67-3.2-7.39,0,0,3.23,1.94,4.52,5.17,0,0-1.42-5.3-5.43-8.14,0,0,3.75,1.16,4.01,1.42,0,0-4.13-3.75-4.39-4.52l2.58,1.03s-6.2-5.81,1.87-5.75c1.31.01,4.72,1.74,4.72,1.74,0,0,3.36,1.03,4.65-.39.87-.96.78-.65,4.26-2.97.63-.42,1.94-2.07,0-3.04,0,0-4.91-3.03-6.46-6.39,0,0-3.21-7.45-4.65-9.56-.76-1.12-2.66-2.65-2.84-3.62-.34-1.78.13-4.91.65-7.24.2-.91.13-3.75.13-3.75,0,0-.52-2.45-5.3,2.97,0,0-1.94,1.68-4.39,3.49-1.2.88-2.84,2.33-4.13,4.26,0,0-5.81.13-8.92,1.16l7.11.26s-1.49.72-3.62,1.03c-1.59.23-2.71.52-6.59-.9,0,0,3.36,2.33,7.11,2.45,0,0-3.23,1.42-7.62,0,0,0,4.01,2.07,6.33,2.2,0,0-4.26.9-7.62-.26,0,0,3.1,1.81,6.46,2.07,0,0-12.66,1.03-14.86,9.56,0,0,1.94-4.78,8.27-6.33,0,0-5.26,3.18-7.33,8.71.44-.94,2-3.12,7.33-4.7,0,0-1.14,1.12-2.45,2.2-1.42,1.16-3.62,5.43-7.88,6.46,0,0,4.78-.39,8.27-3.1,0,0-3.75,3.75-4.39,5.81-.35,1.11-1.55,2.07-3.49,3.1,0,0,6.07-2.58,7.36-4.13,0,0-4.01,6.07-10.21,7.11,0,0,3.75.26,6.33-1.55,0,0-5.06,4.16-7.62,4.93,1.1-.25,3.68-.9,4.78-1.7,0,0-3.36,3.88-6.72,4.26,0,0,4.01-.26,5.43-1.42,0,0-3.83,4.3-6.32,5.07,1.13-.28,4.39-1.11,5.54-1.69-1.53,1.1-7.08,5.16-7.75,6.83,0,0,3.49-3.36,6.85-4.39,0,0-2.76,2.58-3.75,3.36-1.54,1.2-6.46,4.39-6.46,4.39,0,0,9.69-3.88,11.5-3.88,0,0-9.24,5.52-12.88,16.17.33-.92,2.96-7.5,11.59-12.29,0,0-9.43,8.27-10.59,18.48,0,0,4.13-10.34,8.14-13.05,0,0-3.23,6.59-3.88,9.56,0,0,1.94-4.39,5.04-5.94,0,0-2.59,3.92-3.49,6.33-.4,1.07-3.62,5.17-4.13,7.24,0,0,3.36-4.78,5.81-6.2.95-.55,1.42-1.16,1.68-1.42,0,0-4.39,10.85-4.13,15.76,0,0,2.3-6.25,3.88-8.4,1.28-1.74,3.75-5.56,5.43-6.72,0,0-3.62,4.26-6.72,12.15-1.18,3-1.29,7.36-.13,12.02,0,0-1.16-8.92,3.23-14.47,0,0,3.25-4.84,3.75-6.85.54-2.17,2.71-6.72,2.58-8.01,0,0-.68,1.47-2.33,2.2-1.16.52-3.75,3.62-4.52,5.17,0,0,4.01-9.69,6.46-12.4,0,0-4.28,4.62-7.11,7.62-1.37,1.45-2.2,2.84-2.45,2.71-.93-.47,2.32-5.29,9.92-13.41.08,9.53,2.17,17.76,2.22,17.93.65,1.94,2.71,12.92,11.89,20.8,0,0,19.9,16.41,36.44-11.89l-.78-.39ZM53.62,23.94c.58.32,1.18,1.71,1.65,2.07.04.03.07.05.1.06.23.08-1.36-.32-2.2-1.03-.7-.59-1.96-1.15-2.65-1.1,0,0,2.4-.38,3.1,0ZM47.51,3.18c.06-.15.1-.24.1-.24-.03.08-.07.16-.1.24-.37.91-1.63,4.47-1.19,10.1,0,0-5.43,7.36-8.79,6.85,0,0,3.75-.52,7.11-7.49.4-.83-.12-2.55,2.87-9.45ZM19.4,36.97c-.05.06-.08.09-.09.08.03-.03.06-.05.09-.08.67-.77,5.18-6.79,11.54-8.83,0,0-5.04,0-10.34,3.23,0,0,2.84-4.39,11.5-7.11,0,0-8.01.39-10.21,1.68,0,0,2.71-2.71,9.3-4.78h-3.08l7.89-2.26s.03-.06,0-.06l-4.41.26s6.45-2.71,6.58-3.23c0,0-3.1,1.16-5.04.26,0,0,4.78-.47,6.46-2.24,0,0-2.46,1.33-4.91,1.08,0,0,6.98-2.33,8.66-5.17,0,0-3.62,5.94-4.26,6.33,0,0,1.5-.98,2.27-1.73.27-.36.44-.6.44-.6-.03.15-.2.36-.44.6-.87,1.16-2.84,3.66-4.21,4.44,0,0,2.97-1.29,3.62-2.07,0,0-1.42,3.49-7.88,4.39,0,0,6.46-.78,9.56-.39,0,0-5.43-.06-8.72,2.75,0,0,1.36-.81,4.46-.81,0,0-5.3,2.33-6.2,3.49,0,0,1.36-.63,2.39-.75.11-.01.22-.02.32-.02,1.03,0-1.55.9-2.84,3.36,0,0,3.88-2.84,5.43-3.1,0,0-4.01,3.36-4.91,7.24,0,0,1.42-3.49,5.69-5.3,0,0-2.33,2.2-4.01,6.33l1.81-.9s-1.1,1.44-1.16,2.33c0,0,.9-3.23,6.85-4.65,0,0-3.56,1.84-3.86,3.01,0,.02.02.04.04.02.14-.19.56-.44.98-.44,0,0,.48,3.99-.77,6.94,0,.02.02.03.03.01.45-.81,1.7-3.71,1.91-5.4,0,0,.8,4.88-.29,7-.03.05.04.09.08.05.36-.51.86-1.8,1.38-4.98,0,0,3.02,5.68,4.51,6.99l.15.12s-.1-.07-.15-.12l-2.57-2.08s5.04,5.81,5.17,6.59c0,0-4.26-3.1-4.78-3.49,0,0,3.49,4.78,4.13,7.24,0,0-5.43-6.72-8.53-8.01,0,0,4.65,7.8,4.59,10.75,0,0-2.92-5.4-6.4-8.29-.89-.74-1.03-1.42-.9-4.52,0,0-1.68.9-1.03,5.43,0,0-5.04-4.01-1.81-11.5,0,0-4.01,5.3-2.07,10.59,0,0-3.1-2.84.26-11.5,0,0-2.33,3.88-2.45,6.46,0,0-.47-4.65.67-6.46,0,0-3.25,3.62-3.38,7.11,0,0,0-7.62,2.58-9.43,0,0-1.68,1.03-3.1,4.13,0,0-.13-2.97.39-3.88,0,0-5.45,2.6-6.89,3.92ZM15.47,46.51c.35-.47,1.49-1.93,2.1-2.54,2.84-2.84,6.01-7.69,6.01-7.69-2,5.23-1.36,4.2-1.62,4.46-3.55,3.55-6.21,6.03-6.21,6.03-.17.16-.42-.07-.28-.25ZM9.31,70.65s-.03.04,0,0h0ZM18.28,59.54c-.12,1.61-.17,3.22-.16,4.8l-.1-.4s-6.61,3.49-8.31,6.07c.9-1.48,3.01-4.9,3.53-5.42.65-.65,4.01-5.04,4.01-5.04,0,0-3.75,2.45-6.85,5.56s7.88-10.21,7.88-10.21c0,0,.9-.78-1.16,0-1.97.74-7.88,2.97-7.88,2.97,0,0,9.04-7.24,9.43-7.88s-5.56,3.1-5.56,3.1l6.09-6.58s-.01-.07-.04-.05c-1.21,1.02-5.13,4.32-6.3,4.43,0,0,7.24-6.46,8.66-8.79,0,0-2.37,5.92-3.23,17.44ZM52.13,104.89l1.55.26c-18.09,6.72-29.07-8.79-31.78-23.77-2.73-15.08-.65-29.59-.65-29.59-1.29,10.34,4.78,17.57,4.78,17.57-8.01-15.12-.52-30.49-.52-30.49-1.81,8.92,5.58,16.04,5.58,16.04-5.79-7.6-3.47-13.36-3.47-13.36-.22,8.76,5.49,13.36,5.49,13.36-3-3.34-2.52-8.09-2.52-8.09.55,4.46,3.13,6.52,3.13,6.52-1.23-1.16-2.65-7.5-1.79-5.55.86,1.95,3.92,7.35,3.92,7.35-.39-.78-2.13-7.35-2.13-7.35,1.49,1.82,3.65,7.03,3.65,7.03-.42-1.1-1.13-6.14-1.13-6.14,3.36,3.1,8.14,12.27,8.14,12.27l-2.55-3.95c.61,1.03.61,5.89.61,5.89,0-1.68-3.67-7.99-3.67-7.99.72,4.29-.59,8.76-.59,8.76-.52-4.39-2.58-6.59-2.58-6.59,1.42,3.88.65,6.46.65,6.46.26-4.13-4.26-7.75-4.26-7.75,2.84,3.1,2.84,8.4,2.84,8.4,0-2.07-4.01-7.75-4.01-7.75,0,0-1.16-1.55,0,.26s1.29,5.81,1.29,5.81c-.65-4.65-5.43-9.04-5.43-9.04-.13,1.16,1.94,5.56,1.94,5.56-3.75-4.13-4.39-11.11-4.39-11.11-2.11,8.21,0,14.28.84,16.25-1.09-3.04-.31-10.15-.31-10.15.92,9.2,5.28,15.1,5.28,15.1-3.36-7.11-.39-10.21-.39-10.21-.78,11.37,4.07,14.45,4.07,14.45-1.74-2.99-2.13-6.7-2.13-6.7,1.55,6.59,4.52,8.53,4.52,8.53.14,1.55,1.01,5.54,1.42,8.27.34,2.27.26,3.49.26,3.49-1.04,0-3.83-3.33-5.56-6.59-1.69-3.2-2.33-6.33-2.33-6.33-.65,6.72,3.81,11.22,3.81,11.22-2.26-.02-6.52-8.25-6.52-8.25l2.58,5.56c-6.98-5.3-6.85-12.79-6.85-12.79-3.23,10.08,11.11,17.44,11.11,17.44-2.2.39-8.53-4.01-8.53-4.01,3.1,4.39,12.15,5.56,12.15,5.56-4.65.9-9.43-1.29-9.43-1.29,1.55,2.2,9.82,6.72,9.82,6.72-1.29.13-5.3-1.68-5.3-1.68,5.81,5.69,12.15,6.2,12.15,6.2-10.47-.78-14.08-4.65-14.08-4.65,8.27,9.82,18.48,9.04,18.48,9.04-8.4,2.58-14.92-2.11-14.92-2.11,11.31,9.39,24.48-.22,24.48-.22-.13.9-6.72,4.13-6.72,4.13Z"/>
        <path class="cls-2" d="M7.05,53.63c-.25.06-.4.1-.4.1.13-.02.26-.05.4-.1Z"/>
      </g>
      <path class="cls-2" d="M63.76,102.69s12.4-11.5,5.43-30.75c0,0,13.11,13.76-5.43,30.75Z"/>
      <path class="cls-2" d="M17.6,82s-5.83,9.7-4.15,21.07c0,0,1.03,5.56-3.49,8.27,0,0,4.13.39,5.17-5.81,0,0,1.94,8.14,5.17,11.11,0,0-1.16-3.49-1.16-4.65s0-.26,0-.26c0,0,3.36,7.49,5.81,9.43,0,0-4.39-7.62-3.88-12.53,0,0,2.97,8.66,11.5,15.63,0,0-3.49-5.04-3.36-5.94,0,0,5.3,7.36,11.11,9.17,0,0-9.3-7.11-9.3-12.4,0,0,5.17,8.79,11.63,9.3,0,0,6.33,1.03,6.98,2.71,0,0-.65-2.2-7.49-3.88-2.39-.59-6.46-4.01-7.62-6.2,0,0,8.53,6.72,13.57,7.36l-.39-.9s10.47,6.46,19.25-.65c0,0-5.94,5.17-16.93-.13,0,0,16.67,3.75,18.86-6.59,0,0-2.97,8.4-18.61,2.2,0,0,13.31,2.84,19.51-5.43,0,0-3.88,3.1-6.33,3.1,0,0,7.75-2.97,8.53-9.3,0,0-3.49,8.92-15.76,9.43l-.39-.65s15.12,0,18.35-17.06c0,0-2.2,6.33-7.49,6.33,0,0,6.2-4.26,5.94-11.89,0,0-7.11,16.28-17.57,17.57,0,0,4.91.52,10.08-2.84,0,0-1.16,5.56-9.69,4.78,0,0,1.03.52,2.58.78,0,0-4.78,1.94-11.5-.52,0,0-.26.9-2.33.52,0,0,1.03,3.49,4.13,4.13,0,0-6.98-1.07-10.72-5.32,0,0,5.17,7.64,14.34,9.32,0,0-10.34-.52-16.8-8.79,0,0,2.07,5.3,5.69,7.11,0,0-11.11-7.36-12.4-12.79,0,0-1.55,5.81.65,8.92,0,0-5.94-6.07-5.3-12.27,0,0-1.29,3.23-.65,5.3,0,0-4.01-7.62-2.97-11.24,0,0-2.17,4.07-1.67,11.59,0,0-5.05-10.04-.9-27.11Z"/>
      <text class="cls-3" transform="translate(59.13 63.93)"><tspan x="0" y="0">A</tspan><tspan class="cls-1" x="7.93" y="0">r</tspan><tspan x="11.95" y="0">tS</tspan><tspan class="cls-4" x="25.66" y="0">t</tspan><tspan x="30.33" y="0">udios</tspan></text>
    </g>
  </g>
</svg>