<?xml version="1.0" encoding="UTF-8"?>
<svg id="_Шар_2" data-name="Шар 2" xmlns="http://www.w3.org/2000/svg" viewBox="0 0 40.17 24.63">
  <defs>
    <style>
      .cls-1, .cls-2 {
        stroke-width: .45px;
      }

      .cls-1, .cls-2, .cls-3, .cls-4, .cls-5, .cls-6 {
        stroke-miterlimit: 10;
      }

      .cls-1, .cls-4, .cls-5, .cls-6 {
        fill: #b22222;
        stroke: #000;
      }

      .cls-2 {
        fill: #000;
      }

      .cls-2, .cls-3 {
        stroke: #b22222;
      }

      .cls-3 {
        fill: none;
        stroke-width: .34px;
      }

      .cls-4 {
        stroke-width: .25px;
      }

      .cls-5 {
        stroke-width: .47px;
      }

      .cls-6 {
        stroke-width: .25px;
      }
    </style>
  </defs>
  <g id="_Шар_1-2" data-name="Шар 1">
    <g>
      <path class="cls-2" d="M17.37,6.44l-4.72-.52-4.44,9.02,11.8,9.07s1.49,1.16,2.33-.55c0,0,3.11.1,2.66-1.72,0,0,3.18.45,2.27-2.27,0,0,2.27.45,2.04-2.5l-11.94-10.54Z"/>
      <path class="cls-2" d="M27.95,6.09s-6.81-2.27-11.12.68l-4.08,4.54s-.91,3.18,2.72.91,4.76-2.5,7.94-.68l5.9,5.44,2.72-2.72-4.08-8.17Z"/>
      <g>
        <path class="cls-2" d="M12.52,15.62l-1.81,2.72s-.91,2.27,2.27,1.81l1.81-3.18s0-2.27-2.27-1.36Z"/>
        <path class="cls-2" d="M20.11,24.09l1.82-2.72s.91-2.27-2.26-1.82l-1.82,3.17s0,2.27,2.26,1.37Z"/>
        <path class="cls-2" d="M15.19,21.46s-2.74.84-2.24-1.41l2.35-3.53s2.74-.88,2.23,1.83l-2.34,3.12Z"/>
        <path class="cls-2" d="M17.97,17.89s2.72-.91,2.27,1.36l-2.27,3.59s-2.72.95-2.27-1.77l2.27-3.18Z"/>
      </g>
      <g>
        <line class="cls-2" x1="22.5" y1="23.33" x2="21.6" y2="22.43"/>
        <line class="cls-2" x1="25.22" y1="21.97" x2="22.05" y2="18.59"/>
        <line class="cls-2" x1="27.72" y1="19.93" x2="24.09" y2="16.3"/>
      </g>
      <polygon class="cls-4" points="33.85 15.17 31.58 15.17 27.49 5.64 28.85 4.28 33.85 15.17"/>
      <path class="cls-1" d="M40.08,13.35l-5.58,2.14c-.18.07-.39-.01-.47-.19l-5.6-11.63c-.08-.18-.02-.39.15-.49L33.73.2"/>
      <g>
        <polygon class="cls-6" points="6.62 15.62 8.96 15.62 13.16 5.81 11.76 4.41 6.62 15.62"/>
        <path class="cls-5" d="M.08,13.75l5.74,2.21c.19.07.4-.01.49-.19L12.07,3.8c.09-.18.02-.4-.15-.5L6.62.21"/>
      </g>
      <line class="cls-3" x1="26.81" y1="10.86" x2="22.5" y2="11.08"/>
    </g>
  </g>
</svg>