<?xml version="1.0" encoding="UTF-8"?>
<svg id="_Шар_2" data-name="Шар 2" xmlns="http://www.w3.org/2000/svg" viewBox="0 0 910.52 114.73">
  <defs>
    <style>
      .cls-1, .cls-2 {
        fill: #000;
        stroke-width: 0px;
      }

      .cls-2 {
        opacity: .89;
      }
    </style>
  </defs>
  <g id="_Шар_1-2" data-name="Шар 1">
    <g>
      <path class="cls-1" d="M32.36,109.52c-2.56,0-6.24-.46-11.04-1.36-4.79-.91-7.81-1.36-9.05-1.36-1.82,0-3.8.62-5.95,1.86-2.73,1.57-4.42,3.55-5.08,5.95H0c0-5.04,1.45-9.78,4.34-14.2,2.89-4.42,6.41-6.63,10.54-6.63,2.98,0,6.49,1.2,10.54,3.6,5.7,3.39,9.18,5.29,10.42,5.7h.74c.58,0,1.14-.19,1.67-.56.54-.37,1.05-.89,1.55-1.55,1.9-1.9,3.1-4.24,3.6-7.01.5-2.77.74-6.1.74-9.98v-41.04c-2.23-.66-4.18-1.12-5.83-1.36-1.65-.25-3.35-.37-5.08-.37-5.54,0-10.62,2.85-15.25,8.55h-1.12c0-6.94,2.89-12.19,8.68-15.75,4.88-2.97,11.08-4.46,18.6-4.46v-13.64c8.27,0,15.13-1.33,20.58-3.98,3.06-1.49,8.8-5.47,17.24-11.93,5.79,2.83,11.45,4.25,16.99,4.25,4.79,0,9.8-1,15-3h.62c-1.32,5.8-3.91,10.29-7.75,13.48-3.84,3.19-8.25,4.78-13.21,4.78-4.46,0-9.09-1.21-13.89-3.63v13.67h20.46l-4.34,13.39h-16.12v23.31c0,14.8-3.18,25.46-9.55,31.99-7.28,7.52-19.88,11.28-37.82,11.28ZM43.52,102.21c8.18-2.73,13.97-6.68,17.36-11.84,3.39-5.17,5.08-12.26,5.08-21.27V17.02c-1.16.58-2.38,1.03-3.66,1.36-1.28.33-2.71.58-4.28.74v46.25c0,8.68-.83,15.46-2.48,20.34-2.07,6.12-6.08,11.61-12.03,16.49Z"/>
      <path class="cls-2" d="M150.54,81.25l2.23,2.33c-4.33,4.25-8.66,8.47-12.99,12.64-2.67-2.48-5.83-4.62-9.49-6.44-2.08-.99-5.83-2.48-11.24-4.46,1.66-1.48,2.88-3.96,3.66-7.43.78-3.47,1.18-8.29,1.18-14.48V15.27c0-1.65-.5-3.34-1.49-5.07-.66-1.16-1.78-2.6-3.35-4.33l.5-.37c3.39.74,6.53,2.27,9.42,4.59h1.12c2.23-2.27,4.46-4.03,6.7-5.29,2.23-1.26,4.71-2.06,7.44-2.39l.37.62c-2.23,1.66-3.93,3.58-5.08,5.78-1.16,2.2-1.74,4.62-1.74,7.27v61.47l9.55,6.71,3.22-2.98Z"/>
      <path class="cls-2" d="M206.07,81.5l2.12,2.35-13.06,11.88c-5.76-3.38-8.64-8.75-8.64-16.09l-17.86,16.09h-1.12c-3.14-3.14-5.46-6.03-6.94-8.67-1.98-3.55-2.98-7.23-2.98-11.03,0-4.96,1.28-9.71,3.84-14.25,2.07-3.55,5.25-7.43,9.55-11.65l-6.57-18.72,2.11.12c2.98,0,5.33-.29,7.06-.86,2.47-.82,4.74-2.42,6.8-4.81l19.24,6.79,4.07-3.1.77.87c-1.24,2.07-2.25,3.99-3.04,5.77-.79,1.78-1.39,3.66-1.8,5.64v38.19c.33.99.76,1.86,1.29,2.6.53.74,1.21,1.28,2.03,1.61l3.12-2.73ZM173.2,49.69l13.29,7.38v-15.75l-18.83-7.43,5.54,15.8ZM176.48,84.49l10.02-9.03v-15.42l-13.39-7.44c-1.16,2.14-2.29,4.31-3.41,6.49s-1.67,4.43-1.67,6.73c0,3.29.82,6.63,2.45,10.01,1.39,2.88,3.39,5.77,6.01,8.65Z"/>
      <path class="cls-2" d="M251.59,105.56c-1.65,2.48-4.98,4.63-9.98,6.45-5,1.82-9.49,2.73-13.45,2.73h-1.49c-5.21-.41-8.72-1.08-10.54-1.99-2.89-1.32-4.84-4.01-5.83-8.07-.25-1-.37-1.95-.37-2.86,0-2.4.95-4.8,2.85-7.2,5.29-6.62,8.16-10.76,8.62-12.42.45-1.66.85-4.1,1.18-7.33.33-3.23.5-6.13.5-8.69,0-4.97-.29-10.06-.87-15.28-.17-1.74-.5-3.97-.99-6.71,0-1.65-.37-3.1-1.12-4.35-.17-.33-.74-1.08-1.74-2.24l-4.34,3.72-2.23-2.61,13.64-12.92c3.22,1.82,5.5,4,6.82,6.52,1.32,2.53,1.98,5.78,1.98,9.75l18.23-16.28c2.81,3.24,4.94,6.91,6.39,11.01,1.45,4.11,2.17,8.4,2.17,12.88,0,7.55-2.65,14.47-7.94,20.78-4.13,4.89-10.04,9.66-17.73,14.31-2.4,1.33-4.79,2.61-7.19,3.86-3.22,1.91-5.87,4.02-7.94,6.35-1.49,1.32-2.69,2.49-3.6,3.48-1.74,1.91-2.6,3.82-2.6,5.72,0,2.07,1.01,3.73,3.04,4.98,2.02,1.24,4.4,1.87,7.13,1.87,2.07,0,3.8-.11,5.21-.32,1.41-.21,2.83-.67,4.28-1.39,1.45-.72,2.83-1.37,4.15-1.96,2.64-1.26,4.13-2.27,4.46-3.03,1.49,0,3.1.06,4.84.19,1.74.12,3.22.47,4.46,1.05ZM234.23,81.5c4.13-3.3,7.58-7.5,10.35-12.59,2.77-5.08,4.15-10.19,4.15-15.31,0-2.73-.48-5.41-1.43-8.06-.95-2.64-2.42-5-4.4-7.07l-8.68,7.56v35.46Z"/>
      <path class="cls-2" d="M337.15,33.01c-1.41-2.15-3.64-4.54-6.7-7.19l-11.73,10.28s2.15,2.54,2.39,2.88l2.02-1.64c2.4,2.81,3.68,4.38,3.85,4.71.58.99.87,2.07.87,3.22v39.28c-3.31-.91-6.47-1.92-9.49-3.03-3.02-1.11-4.9-1.84-5.64-2.17l-.37-37.67c-.33-3.64-1.18-6.57-2.54-8.8-1.36-2.23-3.53-4.59-6.51-7.07l-12.22,10.46c.28.35,1.77,2.15,2.05,2.48,0,0,.01.02.02.02l1.69-1.47c2,2.4,3.25,4.05,3.75,4.96.5.91.75,1.9.75,2.98v39.31c-4.46-1.74-9.18-3.76-14.14-6.08v-37.17c0-4.63-1.57-9.18-4.71-13.64-3.14-4.46-4.71-7.44-4.71-8.93,0-1.9,1.61-4.5,4.84-7.81l-.99-1.61c-4.38.83-7.71,2.73-9.98,5.7-2.27,2.98-3.41,6.28-3.41,9.92,0,4.21,1.94,8.88,5.83,14.01.25,2.15.45,4.61.62,7.37.17,2.77.25,6.42.25,10.97,0,3.55-.04,6.43-.12,8.62-.08,2.19-.33,4.48-.74,6.88-.08,1.16-.33,2.91-.74,5.27-.41,2.36-1.49,4.4-3.22,6.13,4.55,1.41,8.76,3.02,12.65,4.83,4.63,2.15,8.51,4.55,11.66,7.19,2.23-2.22,4.34-3.76,6.32-4.62,1.98-.86,4.05-1.3,6.2-1.3s4.44.54,7.13,1.6c2.69,1.07,5.56,2.51,8.62,4.32,2.98-2.73,5.99-5,9.05-6.82,3.39-2.07,6.86-3.64,10.42-4.71v-42.51c0-3.14-.99-6.2-2.98-9.17Z"/>
      <path class="cls-2" d="M391.84,36.21v48.48c-4.13,1.32-7.87,2.89-11.22,4.71-3.35,1.82-6.43,4.09-9.24,6.82-7.19-5.95-15.58-9.96-25.17-12.03,1.24-1.16,2.17-3.84,2.79-8.06s.93-10.04.93-17.48v-21.45c4.22-1.24,7.81-2.64,10.79-4.22,3.39-1.82,6.45-4.09,9.18-6.82,2.64,2.56,5.91,4.71,9.8,6.45,3.88,1.74,7.94,2.94,12.15,3.6ZM362.7,76.76c2.81.83,5.66,1.65,8.56,2.48,2.07.99,4.46,2.69,7.19,5.08,0-11.24.01-19.72.04-25.42s.1-11.24.21-16.62c-4.27-.66-6.77-1.07-7.51-1.24-3.2-.82-6.03-2.23-8.49-4.21.33,2.23.54,4.13.62,5.7.41,4.79.62,9.67.62,14.63,0,6.53-.41,13.06-1.24,19.59Z"/>
      <path class="cls-2" d="M430.28,81.25l2.23,2.33c-4.33,4.25-8.66,8.47-12.99,12.64-2.67-2.48-5.83-4.62-9.49-6.44-2.08-.99-5.83-2.48-11.24-4.46,1.66-1.48,2.88-3.96,3.66-7.43.78-3.47,1.18-8.29,1.18-14.48V15.27c0-1.65-.5-3.34-1.49-5.07-.66-1.16-1.78-2.6-3.35-4.33l.5-.37c3.39.74,6.53,2.27,9.42,4.59h1.12c2.23-2.27,4.46-4.03,6.7-5.29,2.23-1.26,4.71-2.06,7.44-2.39l.37.62c-2.23,1.66-3.93,3.58-5.08,5.78-1.16,2.2-1.74,4.62-1.74,7.27v61.47l9.55,6.71,3.22-2.98Z"/>
      <path class="cls-2" d="M470.57,79.64l2.23,2.6c-3.31,2.23-5.87,4.13-7.69,5.7-3.14,2.64-5.37,5.24-6.7,7.8-2.89-2.56-5.97-4.75-9.24-6.57-3.27-1.82-6.92-3.47-10.97-4.96,1.41-1.32,2.44-4.44,3.1-9.36.66-4.92.99-10.1.99-15.55v-23.05h-7.19l1.12-7.81h6.08v-15.34c5.79-2.83,10.75-6.4,14.88-10.73l13.76,3.35-2.85,10.79-11.78-4.59v16.52h10.29l-.99,7.81h-9.3v8.93c0,5.54-.19,11.02-.57,16.43-.38,5.42-1.06,10.73-2.04,15.93,1.98.25,4.46,1.45,7.44,3.6.91.66,2.19,1.7,3.84,3.1l5.58-4.59Z"/>
      <path class="cls-1" d="M512.73,70.59c-.58-.58-1.08-.99-1.49-1.24-1.41-.91-2.85-1.36-4.34-1.36-1.16,0-2.4.27-3.72.81-1.32.54-2.69,1.43-4.09,2.67-.08-.33-.12-.83-.12-1.49,0-3.06,2.19-6.12,6.57-9.18,1.41-.99,3.64-2.19,6.7-3.6.41-.41.62-1.03.62-1.86,0-1.74-.83-3.64-2.48-5.7-1.65-2.07-3.25-3.43-4.77-4.09-1.53-.66-3.25-.99-5.15-.99-1.49,0-3.12.25-4.9.74-1.78.5-3.41,1.07-4.9,1.74.74-3.8,3.97-6.86,9.67-9.18,4.71-1.9,9.51-2.85,14.38-2.85,0-5.21-.21-9.88-.62-14.01-.08-1.4-.33-3.1-.74-5.08-1.08-.33-2.6-.58-4.59-.74-1.98-.16-4.26-.25-6.82-.25h-4.09c-4.05,0-7.07.54-9.05,1.61-2.65,1.41-5.83,4.71-9.55,9.92h-.99c1.4-9.42,5.17-16.2,11.28-20.34,5.21-3.47,12.4-5.21,21.58-5.21,4.05,0,10.54,1.12,19.47,3.35,8.93,2.23,15.62,3.35,20.09,3.35,2.98,0,5.62-.58,7.94-1.74,2.31-1.16,4.26-3.1,5.83-5.83l1.12.25c0,7.03-2.44,12.28-7.32,15.75-4.3,3.06-9.96,4.59-16.99,4.59-.33-.25-.62-.37-.87-.37h-.74v68.08c2.81-.66,4.67-1.26,5.58-1.8.91-.54,1.74-1.51,2.48-2.91l1.24,1.74c-.5,2.07-1.74,4.13-3.72,6.2-1.49,1.49-3.27,2.85-5.33,4.09-1.41.83-3.62,1.65-6.63,2.48-3.02.82-6.1,1.24-9.24,1.24-1.9,0-3.8-.17-5.7-.5-1.9-.33-3.8-.91-5.7-1.74-.25-.08-2.03-.99-5.33-2.73-1.32-.66-2.87-1.09-4.65-1.3-1.78-.21-3.1-.43-3.97-.68s-1.47-.37-1.8-.37c-.74,0-1.74.31-2.98.93-1.24.62-3.14,1.76-5.7,3.41,0-2.81.27-4.79.81-5.95.54-1.16,2-2.56,4.4-4.22,1.65-1.16,3.84-1.74,6.57-1.74,2.98,0,6.32.7,10.04,2.11.58-2.64,1.32-6.86,2.23-12.65.08-.83.25-1.94.5-3.35ZM522.53,88.57c1.49.25,2.85.48,4.09.68,1.24.21,2.4.31,3.47.31,1.49,0,3.55-.29,6.2-.87V20.12l-8.8-1.74v29.02c0,6.94-.43,14.32-1.3,22.13-.87,7.81-2.09,14.16-3.66,19.03Z"/>
      <path class="cls-1" d="M605.61,25.79c.91,1.82,1.74,3.27,2.48,4.34,2.31,3.31,5,5.83,8.06,7.56-2.89,1.82-4.92,3.31-6.08,4.46-1.16,1.16-2.69,3.35-4.59,6.57-2.65-.74-4.8-2.92-6.45-6.55-.5-1.16-1.08-2.89-1.74-5.2l-4.84,4.34v37.45l6.82,5.83,3.97-3.35,2.6,2.35c-2.59,1.98-4.63,3.59-6.13,4.83-2.84,2.31-5.26,4.74-7.26,7.3-2.79-2.73-5.56-4.96-8.31-6.69-2.75-1.73-5.97-3.35-9.67-4.83,2.73-2.64,4.09-6.24,4.09-10.78v-29.25c0-2.31-.83-4.34-2.48-6.07l-2.73,1.61-1.98-2.39c2.4-1.16,4.22-2.15,5.46-2.98,3.72-2.64,5.91-5.5,6.57-8.56,2.89,1.17,4.94,2.61,6.14,4.32,1.2,1.71,2,4.24,2.42,7.58l13.64-11.9Z"/>
      <path class="cls-1" d="M669.7,81.5l2.12,2.35-13.06,11.88c-5.76-3.38-8.64-8.75-8.64-16.09l-17.86,16.09h-1.12c-3.14-3.14-5.46-6.03-6.94-8.67-1.98-3.55-2.98-7.23-2.98-11.03,0-4.96,1.28-9.71,3.84-14.25,2.07-3.55,5.25-7.43,9.55-11.65l-6.57-18.72,2.11.12c2.98,0,5.33-.29,7.06-.86,2.47-.82,4.74-2.42,6.8-4.81l19.24,6.79,4.07-3.1.77.87c-1.24,2.07-2.25,3.99-3.04,5.77-.79,1.78-1.39,3.66-1.8,5.64v38.19c.33.99.76,1.86,1.29,2.6.53.74,1.21,1.28,2.03,1.61l3.12-2.73ZM636.83,49.69l13.29,7.38v-15.75l-18.83-7.43,5.54,15.8ZM640.11,84.49l10.02-9.03v-15.42l-13.39-7.44c-1.16,2.14-2.29,4.31-3.41,6.49s-1.67,4.43-1.67,6.73c0,3.29.82,6.63,2.45,10.01,1.39,2.88,3.39,5.77,6.01,8.65Z"/>
      <path class="cls-1" d="M730.72,82.62l2.23,2.09c-1.16.49-2.11.94-2.85,1.35-4.46,2.54-7.98,5.78-10.54,9.71-3.64-1.07-6.08-3.38-7.32-6.93-.91-2.47-1.36-6.1-1.36-10.89v-34.65l-5.7-5.57-9.05,7.56v35.94l3.97,5.33c-1.32.74-2.36,1.4-3.1,1.98-2.4,1.98-4.55,4.55-6.45,7.68-3.31-.42-6.24-2.19-8.8-5.33-.83-.99-1.82-2.56-2.98-4.71l3.72-4.59v-37.43c0-2.56-.91-4.71-2.73-6.44l-2.23,1.98-1.86-2.36c2.06-1.33,3.68-2.44,4.84-3.36,3.55-2.82,5.95-5.55,7.19-8.2,3.22.91,5.41,2.73,6.57,5.47.83,1.82,1.45,5.3,1.86,10.44,2.89-2.31,5.79-4.67,8.68-7.07,3.22-2.73,6.03-5.54,8.43-8.43,2.64.5,5,2.23,7.07,5.21.66.99,1.4,2.44,2.23,4.34l5.7-5.33,2.11,2.23c-2.23,2.98-4.34,6.12-6.32,9.42v38.32c.5.83.83,1.36.99,1.61.74,1.08,1.61,1.94,2.6,2.6l3.1-1.98Z"/>
      <path class="cls-1" d="M778.83,21.23l3.97-5.95c2.07.41,3.43,1.3,4.09,2.67.66,1.36.99,3,.99,4.9,0,2.4-1.45,5.66-4.34,9.8l-13.64,19.34c2.89,1.41,5.12,2.52,6.7,3.35,4.79,2.65,7.98,5,9.55,7.07-.5,2.65-.85,5.48-1.05,8.5-.21,3.02-.31,6.1-.31,9.24v3.41c0,.79.04,1.38.12,1.8-3.14,1.07-6.28,2.51-9.42,4.33-2.65,1.57-5.54,3.58-8.68,6.06-2.32-1.48-4.61-2.54-6.88-3.2-2.27-.66-4.48-.98-6.63-.98-4.22,0-8.85,1.16-13.89,3.47l-2.36-1.61,16.61-24.93c-1.74-2.64-4.42-4.71-8.06-6.2-1.16-.5-2.85-.99-5.08-1.49.08-.91.17-1.65.25-2.23.58-4.46.87-8.02.87-10.66s-.06-4.42-.19-5.58c-.12-1.16-.43-2.73-.93-4.71,3.55-.91,6.78-2.56,9.67-4.96,3.14-3.14,5.54-5.54,7.19-7.19,3.3,1.9,5.87,3.27,7.69,4.09,3.06,1.32,5.83,1.98,8.31,1.98,1.49,0,2.95-.39,4.4-1.18,1.45-.78,2.5-1.75,3.16-2.91.33-.66.5-1.36.5-2.11,0-1.4-.87-2.77-2.6-4.09ZM757.63,79.39c2.31,0,4.63.35,6.94,1.05,2.31.7,4.88,1.74,7.69,3.14l1.49-18.56-9.64-4.83-14.91,20.57c1.16-.25,2.46-.54,3.91-.87,1.45-.33,2.96-.5,4.52-.5ZM760.13,58.7l13.63-18.6c-1.33.16-2.71.35-4.16.55-1.45.21-2.5.31-3.16.31-4.22,0-8.77-1.12-13.65-3.35.33,1.33.54,2.59.62,3.79.08,1.2.12,2.54.12,4.03,0,2.89-.06,4.88-.19,5.96-.12,1.07-.31,1.94-.56,2.6l7.34,4.72Z"/>
      <path class="cls-1" d="M826.32,81.25l2.23,2.33c-4.33,4.25-8.66,8.47-12.99,12.64-2.67-2.48-5.83-4.62-9.49-6.44-2.08-.99-5.83-2.48-11.24-4.46,1.66-1.48,2.88-3.96,3.66-7.43.78-3.47,1.18-8.29,1.18-14.48V15.27c0-1.65-.5-3.34-1.49-5.07-.66-1.16-1.78-2.6-3.35-4.33l.5-.37c3.39.74,6.53,2.27,9.42,4.59h1.12c2.23-2.27,4.46-4.03,6.7-5.29,2.23-1.26,4.71-2.06,7.44-2.39l.37.62c-2.23,1.66-3.93,3.58-5.08,5.78-1.16,2.2-1.74,4.62-1.74,7.27v61.47l9.55,6.71,3.22-2.98Z"/>
      <path class="cls-1" d="M854.97,25.79l18.35,20.74c-3.47,1.57-7.56,4.3-12.28,8.18-3.89,3.39-7.77,6.74-11.66,10.04v14.63c2.4,1.08,4.88,2.4,7.45,3.97.83.5,1.82,1.16,2.98,1.98l9.43-6.94,2.09,2.35c-3.64,2.56-7.07,5.03-10.29,7.43-4.3,3.38-7.52,5.9-9.67,7.55-2.56-2.23-5.58-4.01-9.05-5.33-2.32-.91-5.75-1.82-10.29-2.73,1.49-1.41,2.6-4.79,3.35-10.17.74-5.37,1.12-11.24,1.12-17.61,0-3.64-.08-7.44-.25-11.41-.17-3.97-.33-7.6-.5-10.91,6.78-3.47,13.18-7.4,19.22-11.78ZM848.89,60.74c2.99-2.15,6.02-4.63,9.09-7.44,1-.91,2.24-2.11,3.74-3.6l-12.78-13.51c.13,1.08.2,1.94.2,2.6.33,4.46.5,8.43.5,11.9v1.36c0,3.72-.25,6.61-.74,8.68Z"/>
      <path class="cls-1" d="M910.15,28.43v7.81h-13.89v42.66c1.07.58,1.86,1.08,2.36,1.49,1.65,1.41,2.89,3.06,3.72,4.96l5.83-5.21,2.36,3.09c-3.47,1.98-6.37,4.17-8.68,6.56-1.9,1.98-3.76,3.96-5.58,5.94-3.31-3.06-5.99-5.29-8.06-6.69-2.81-1.98-5.91-3.59-9.3-4.83,1.49-1.9,2.38-4.61,2.67-8.12.29-3.51.43-9.03.43-16.55v-23.3h-4.34v-2.73l18.6-25.08v20h13.89Z"/>
    </g>
  </g>
</svg>